<?xml version="1.0" encoding="utf-8"?>
<!-- Generator: Adobe Illustrator 26.0.2, SVG Export Plug-In . SVG Version: 6.00 Build 0)  -->
<svg version="1.1" id="Layer_1" xmlns="http://www.w3.org/2000/svg" xmlns:xlink="http://www.w3.org/1999/xlink" x="0px" y="0px"
	 viewBox="0 0 24 24" style="enable-background:new 0 0 24 24;" xml:space="preserve">
<g>
	<path d="M16,2H8C5.8,2,4,3.8,4,6v12c0,2.2,1.8,4,4,4h8c2.2,0,4-1.8,4-4v-2h-2v2c0,1.1-0.9,2-2,2H8c-1.1,0-2-0.9-2-2V6
		c0-1.1,0.9-2,2-2h8c1.1,0,2,0.9,2,2v2h2V6C20,3.8,18.2,2,16,2z"/>
	<polygon points="20,12 16,9 16,11 9,11 9,13 16,13 16,15 	"/>
</g>
</svg>
